<svg width="298" height="36" viewBox="0 0 298 36" fill="none" xmlns="http://www.w3.org/2000/svg">
<g clip-path="url(#clip0_3_4)">
<path d="M0.941259 0H3.84414C4.06031 0 4.23016 0.18441 4.23016 0.419113V15.2725L0.570679 19.078V0.419113C0.570679 0.18441 0.740528 0 0.9567 0H0.941259Z" fill="#272A2B"/>
<path d="M22.9445 1.29086L1.41992 24.5601C0.879494 25.1468 0.570679 25.9347 0.570679 26.773V34.9541C0.570679 35.3564 0.879493 35.6917 1.25007 35.6917H3.55076C3.92134 35.6917 4.23016 35.3564 4.23016 34.9541V26.8903L9.54181 20.8551L23.2996 35.0882C23.6702 35.4737 24.1643 35.6917 24.6893 35.6917H28.4723L12.5836 18.5751C12.3212 18.3069 12.3212 17.8542 12.5836 17.5693L28.2252 0.553223H24.6121C23.9944 0.553223 23.4077 0.821456 22.9753 1.29086H22.9445Z" fill="#272A2B"/>
<path d="M62.3032 9.74015L50.1512 35.6916H53.224C53.9188 35.6916 54.5364 35.2725 54.8453 34.6019L63.9554 15.021C64.2024 14.4845 64.2024 13.8642 63.9554 13.3278L62.2877 9.72339L62.3032 9.74015Z" fill="#272A2B"/>
<path d="M67.2442 0L65.4685 3.1182C65.098 3.77202 65.0671 4.59348 65.4068 5.28082L79.8748 34.9205C80.1065 35.3899 80.5697 35.6917 81.0638 35.6917H84.3372L67.2442 0Z" fill="#272A2B"/>
<path d="M134.613 0H106.464C106.208 0 106.001 0.225174 106.001 0.502937V3.67143C106.001 3.94919 106.208 4.17436 106.464 4.17436H134.613C134.869 4.17436 135.076 3.94919 135.076 3.67143V0.502937C135.076 0.225174 134.869 0 134.613 0Z" fill="#272A2B"/>
<path d="M121.75 8.06372H118.94C118.787 8.06372 118.662 8.19883 118.662 8.36549V35.3899C118.662 35.5565 118.787 35.6916 118.94 35.6916H121.75C121.904 35.6916 122.028 35.5565 122.028 35.3899V8.36549C122.028 8.19883 121.904 8.06372 121.75 8.06372Z" fill="#272A2B"/>
<path d="M168.876 9.74023L156.523 35.6918H159.797C160.322 35.6918 160.816 35.3732 161.063 34.8535L170.929 14.1829L168.876 9.74023Z" fill="#272A2B"/>
<path d="M173.431 0L171.702 3.41996C171.47 3.88937 171.455 4.4426 171.702 4.92877L186.247 35.0378C186.448 35.4402 186.834 35.6917 187.251 35.6917H190.694L173.431 0Z" fill="#272A2B"/>
<path d="M212.249 0.335006V3.72144C212.249 3.90585 212.388 4.03996 212.543 4.03996H229.419C231.01 4.03996 232.585 4.71054 233.65 6.00141C234.314 6.80611 234.731 7.76169 234.916 8.88491C235.117 10.1422 234.947 11.4666 234.438 12.6066C234.083 13.4113 233.619 14.0148 233.094 14.501C232.106 15.4063 230.809 15.8421 229.497 15.8421H215.754V8.85138C215.754 8.71727 215.646 8.59991 215.523 8.59991H212.481C212.357 8.59991 212.249 8.71727 212.249 8.85138V19.7818H232.168C233.187 19.7818 234.222 20.0333 235.086 20.62C235.766 21.0727 236.352 21.7097 236.8 22.6318C237.341 23.7215 237.495 24.9956 237.356 26.2361C237.171 27.9629 236.507 29.2705 235.503 30.2764C234.839 30.9302 233.496 31.4331 232.6 31.4331C228.431 31.4331 216.017 31.4331 216.017 31.4331V23.3526C216.017 22.8497 215.754 22.3971 215.337 22.1959L212.249 21.4247V34.8699C212.249 35.3225 212.589 35.6913 213.006 35.6913H231.597C233.45 35.6913 235.302 35.2052 236.893 34.1658C238.097 33.3778 239.132 32.3049 239.935 30.8296C240.954 28.9185 241.309 26.672 241.077 24.4926C240.784 21.7768 239.657 19.1783 236.013 16.9821C237.094 15.641 237.649 14.8363 238.082 13.0089C238.684 10.444 238.514 7.67786 237.387 5.33083C236.754 4.0232 235.905 2.91674 234.793 2.02822C233.326 0.871471 231.519 0.301476 229.697 0.267947L212.574 0.0164795C212.404 0.0164795 212.265 0.167361 212.265 0.335006H212.249Z" fill="#272A2B"/>
<path d="M274.939 9.74015L262.895 35.6916H266.354C266.74 35.6916 267.079 35.4569 267.249 35.0881L276.606 15.0042C276.854 14.4845 276.854 13.881 276.606 13.3613L274.939 9.72339V9.74015Z" fill="#272A2B"/>
<path d="M279.788 0L278.429 3.16849C278.151 3.80555 278.166 4.54318 278.46 5.16347L292.557 34.9876C292.758 35.4234 293.175 35.7084 293.638 35.7084H297.097L279.788 0.0167649V0Z" fill="#272A2B"/>
</g>
<defs>
<clipPath id="clip0_3_4">
<rect width="298" height="36" fill="white"/>
</clipPath>
</defs>
</svg>
