<svg width="796" height="727" viewBox="0 0 796 727" fill="none" xmlns="http://www.w3.org/2000/svg">
<path d="M13.5148 184.41C14.6209 185.463 16.6726 187.971 17.8055 189.372C19.1792 191.058 20.4816 192.647 21.9177 194.19C32.2118 205.246 41.4532 215.24 50.3824 225.618C51.8008 227.269 53.3975 228.724 55.1459 229.964L43.6387 683.635C43.264 698.413 54.9407 710.7 69.7128 711.075L683.341 726.646C683.564 726.646 683.796 726.646 684.019 726.646C690.869 726.646 697.47 724.014 702.457 719.275C707.604 714.385 710.592 707.648 710.771 700.554L724.026 177.673L744.712 183.563C752.214 185.695 760.278 184.455 766.79 180.154C773.302 175.853 777.611 168.919 778.583 161.174C779.011 157.801 780.67 153.214 782.428 148.351C783.783 144.612 785.309 140.383 786.584 135.876C787.967 130.995 788.904 126.266 789.724 122.099C790.375 118.797 791 115.674 791.731 112.961C791.883 112.408 792.035 111.828 792.186 111.221C792.383 110.472 792.659 109.383 792.846 108.794C796.299 101.816 796.548 93.66 793.498 86.4588C790.34 79.0078 783.971 73.3861 776.192 71.1731L582.55 16.018C574.272 13.6622 565.352 15.429 558.608 20.783C552.159 25.8961 548.43 33.6862 548.466 41.8778C548.171 43.3769 547.145 46.4466 546.583 48.1598C545.897 50.2211 545.254 52.1754 544.719 54.2099C544.621 54.5847 544.523 54.9594 544.425 55.3253L231.474 47.3835C230.582 46.2592 229.663 45.0724 228.726 43.8677C226.3 40.7267 223.552 37.1752 220.439 33.6951C217.058 29.9116 213.571 26.5832 210.493 23.6474C208.058 21.3274 205.756 19.1322 203.865 17.0531C203.482 16.6337 203.071 16.1875 202.643 15.7324C202.117 15.1613 201.35 14.3493 200.948 13.8764C196.907 7.21957 190.155 2.6419 182.448 1.35694C174.464 0.0362807 166.311 2.39204 160.272 7.78174L119.033 44.537L86.6078 43.716C79.4983 43.5376 72.6386 46.1789 67.4916 51.0778C62.3446 55.9678 59.3563 62.7049 59.1779 69.799L58.4464 98.5321L9.92885 141.766C3.49731 147.494 0.214633 155.972 1.11558 164.538C1.97193 172.73 6.54805 180.047 13.4791 184.41H13.5148Z" fill="white"/>
<path d="M699.588 86.0048L85.96 70.467L70.4274 684.303L684.055 699.841L699.588 86.0048Z" fill="#F8F1EE"/>
<path d="M115.322 193.704L115.309 194.23L663.946 208.122L663.959 207.596L115.322 193.704Z" fill="#DCB798"/>
<path d="M114.116 241.566L114.103 242.092L662.74 255.984L662.753 255.458L114.116 241.566Z" fill="#DCB798"/>
<path d="M112.892 289.437L112.879 289.963L661.516 303.855L661.53 303.329L112.892 289.437Z" fill="#DCB798"/>
<path d="M111.677 337.299L111.664 337.825L660.301 351.717L660.315 351.191L111.677 337.299Z" fill="#DCB798"/>
<path d="M110.472 385.161L110.459 385.688L659.096 399.58L659.11 399.053L110.472 385.161Z" fill="#DCB798"/>
<path d="M109.257 433.023L109.244 433.549L657.881 447.442L657.895 446.915L109.257 433.023Z" fill="#DCB798"/>
<path d="M108.043 480.894L108.029 481.421L656.667 495.313L656.68 494.787L108.043 480.894Z" fill="#DCB798"/>
<path d="M106.829 528.756L106.815 529.283L655.453 543.175L655.466 542.649L106.829 528.756Z" fill="#DCB798"/>
<path d="M105.614 576.618L105.601 577.145L654.238 591.037L654.251 590.511L105.614 576.618Z" fill="#DCB798"/>
<path d="M104.399 624.49L104.386 625.016L653.023 638.908L653.036 638.382L104.399 624.49Z" fill="#DCB798"/>
<path opacity="0.8" d="M200.511 51.5418C195.347 45.7684 189.334 40.8338 184.116 35.105C182.234 33.0437 179.593 30.4292 178.086 27.77L27.7607 161.745C33.0148 164.752 38.3759 172.587 41.498 175.942C51.3639 186.543 61.2119 197.171 70.6585 208.146L220.466 74.6354C212.732 68.2284 207.3 59.1266 200.511 51.5418Z" fill="#E7AE4A"/>
<path opacity="0.8" d="M760.841 128.586C762.946 121.126 763.891 113.407 765.925 105.93C766.657 103.235 767.451 99.6029 768.887 96.9081L575.245 41.7529C575.53 47.8029 571.784 56.5299 570.633 60.9648C566.976 74.9745 563.283 88.9931 559.081 102.851L752.045 157.81C753.303 147.842 758.075 138.384 760.849 128.586H760.841Z" fill="#E7AE4A"/>
</svg>
