<svg width="249" height="257" viewBox="0 0 249 257" fill="none" xmlns="http://www.w3.org/2000/svg">
    <g clip-path="url(#clip0_11_10)">
    <path d="M48.8305 109.978C25.1224 119.686 10.3783 148.076 15.9408 173.264C17.0145 178.092 19.4442 183.447 24.2154 184.48C29.0005 185.521 33.4716 181.618 36.4419 177.604C42.6439 169.274 46.3569 159.358 49.9775 149.586C54.1971 138.251 58.4532 125.797 54.6609 114.378C54.1668 112.897 52.5071 111.198 48.8376 109.964L48.8305 109.978Z" fill="white"/>
    <path d="M23.1042 185.376C17.7929 183.661 15.6278 177.287 14.7968 173.512C9.1234 147.795 24.1887 118.817 48.3865 108.908C48.6313 108.807 48.9167 108.797 49.1729 108.877C53.673 110.4 55.2226 112.515 55.7234 114.018C59.4952 125.408 55.6541 137.534 51.0156 149.983C47.4026 159.706 43.66 169.747 37.316 178.284C34.8775 181.575 29.8859 186.889 23.922 185.589C23.6377 185.53 23.3466 185.449 23.0766 185.362L23.1042 185.376ZM48.8624 111.203C25.8993 120.858 11.6388 148.483 17.0505 173.015C17.8029 176.434 19.7662 182.318 24.4331 183.35C29.1419 184.368 33.3865 179.753 35.4986 176.923C41.6511 168.655 45.3222 158.752 48.8841 149.195C53.3711 137.141 57.095 125.444 53.5569 114.753C53.3432 114.117 52.4613 112.505 48.8624 111.203Z" fill="black"/>
    <path d="M178.637 146.261C194.256 166.566 192.748 198.514 175.269 217.504C171.914 221.144 167.123 224.548 162.49 223.044C157.823 221.54 155.933 215.921 155.369 210.954C154.197 200.629 155.977 190.185 157.747 179.929C159.798 168.014 162.377 155.112 171.384 147.148C172.553 146.107 174.857 145.478 178.644 146.247L178.637 146.261Z" fill="white"/>
    <path d="M162.127 224.152C156.325 222.27 154.677 215.166 154.219 211.111C153.023 200.529 154.839 189.981 156.609 179.76C158.864 166.673 161.631 154.253 170.61 146.309C171.8 145.262 174.207 144.196 178.861 145.151C179.132 145.204 179.366 145.36 179.551 145.578C195.484 166.291 193.953 198.927 176.113 218.309C173.359 221.296 167.895 226.034 162.134 224.173L162.127 224.152ZM177.99 147.309C174.208 146.631 172.651 147.576 172.144 148.014C163.714 155.472 161.065 167.462 158.885 180.133C157.153 190.18 155.36 200.582 156.518 210.83C156.921 214.349 158.276 220.461 162.847 221.95C167.389 223.425 172.058 219.31 174.431 216.72C191.437 198.239 193.002 167.196 177.997 147.295L177.99 147.309Z" fill="black"/>
    <path d="M104.12 55.1483C110.524 47.7806 109.955 36.1913 118.334 30.3883C122.843 27.2582 129.421 26.3897 135.841 27.3832C142.255 28.3556 148.513 31.051 154.135 34.4331C160.005 37.9786 162.409 43.6531 163.492 48.3286C166.005 59.1728 162.73 67.5995 159.29 77.4289C158.971 78.3496 158.61 79.3184 157.705 79.8831C155.684 81.1488 152.07 79.4014 150.898 77.1663C149.725 74.9311 150.224 72.58 150.769 70.4104C152.035 65.392 153.434 60.3198 152.883 54.9561C152.331 49.5925 149.49 43.7797 144.038 40.2052C137.827 36.1333 128.877 36.0368 124.168 39.9918C121.43 42.3049 120.174 45.6123 118.982 48.8302C117.926 51.7161 116.857 54.5948 115.801 57.4807C115.129 59.2869 114.351 61.2306 112.384 62.0867C110.39 62.9632 107.4 62.3444 105.635 60.7131C103.864 59.0608 103.102 56.3375 104.113 55.1621L104.12 55.1483Z" fill="white"/>
    <path d="M154.174 81.1209C152.346 80.5252 150.681 79.2083 149.882 77.6738C148.432 74.927 149.168 72.0158 149.653 70.0958L149.852 69.3056C151.029 64.6963 152.236 59.9275 151.734 55.0445C151.152 49.3675 148.031 44.1629 143.399 41.1354C137.657 37.376 129.18 37.2444 124.901 40.8437C122.346 43.0062 121.189 46.155 120.061 49.2138L116.881 57.8644C116.266 59.5253 115.355 62.0306 112.843 63.1295C110.414 64.2017 106.974 63.507 104.845 61.5299C102.798 59.6303 101.649 56.2338 103.24 54.3779C105.884 51.3332 107.337 47.3746 108.739 43.5476C110.655 38.3226 112.629 32.9175 117.658 29.426C122.167 26.2959 128.847 25.1297 135.99 26.2166C142.028 27.17 148.324 29.5876 154.719 33.4396C159.733 36.4724 163.06 41.3807 164.608 48.0659C167.082 58.7495 164.179 66.9657 160.833 76.4765L160.363 77.7916C160.03 78.7399 159.566 80.0412 158.31 80.8445C157.3 81.4774 155.948 81.6186 154.521 81.2301C154.396 81.2005 154.292 81.1643 154.174 81.1209ZM139.909 36.983C141.571 37.5278 143.181 38.2736 144.65 39.226C149.854 42.6371 153.355 48.459 154.018 54.8258C154.557 60.1128 153.298 65.0826 152.077 69.8791L151.878 70.6693C151.333 72.8389 150.951 74.7951 151.907 76.6029C152.463 77.661 153.792 78.6463 155.115 78.9986C155.912 79.2183 156.615 79.1794 157.085 78.8799C157.626 78.5465 157.878 77.8892 158.189 77.0171L158.66 75.7021C161.89 66.5166 164.684 58.6119 162.368 48.5703C160.978 42.5273 158 38.0968 153.53 35.3985C147.391 31.6962 141.378 29.3729 135.666 28.5006C129.092 27.4981 123.013 28.5196 118.988 31.3225C114.563 34.3912 112.799 39.2218 110.919 44.343C109.452 48.3639 107.926 52.5301 104.993 55.8977C104.512 56.4545 104.964 58.4918 106.426 59.8616C107.841 61.1889 110.365 61.7248 111.933 61.0301C113.41 60.3759 114.078 58.848 114.728 57.0833L117.909 48.4327C119.08 45.2563 120.403 41.6507 123.436 39.1052C127.385 35.7726 134.051 35.0723 139.93 36.9763L139.909 36.983Z" fill="black"/>
    <path d="M84.0585 54.6262C74.0107 56.8863 68.1523 66.5153 63.7369 75.4199C50.3839 102.306 39.8639 130.554 32.4075 159.581C30.0255 168.82 28.1615 179.325 33.5987 187.497C37.5573 193.451 44.5921 196.776 51.3284 199.562C79.9395 211.443 109.753 221.373 140.519 224.861C145.728 225.455 151.231 225.886 155.968 223.872C163.545 220.666 166.993 212.346 169.048 204.619C176.049 178.333 180.593 147.589 184.73 120.679C189.647 88.7086 182.755 77.1219 162.08 70.2754C136.245 63.3155 112.108 48.3382 84.0513 54.64L84.0585 54.6262Z" fill="white"/>
    <path d="M86.2166 213.763C75.1025 210.166 63.387 205.801 50.8761 200.606C44.2437 197.856 36.8212 194.401 32.6307 188.117C27.0706 179.776 28.6902 169.337 31.2853 159.28C38.7632 130.212 49.3337 101.833 62.6943 74.8977C67.3027 65.6201 73.3998 55.8345 83.7895 53.4886C104.436 48.8507 123.22 55.6292 141.381 62.1904C148.226 64.6644 155.292 67.2179 162.361 69.1246C184.739 76.5373 190.651 89.5781 185.849 120.819L185.169 125.213C181.244 150.867 176.771 179.95 170.144 204.871C168.316 211.752 164.9 221.297 156.406 224.887C151.431 226.988 145.761 226.575 140.372 225.958C123.42 224.032 105.717 220.072 86.21 213.742L86.2166 213.763ZM84.3078 55.7356C74.8603 57.8511 69.132 67.1271 64.76 75.9141C51.457 102.704 40.9442 130.938 33.5173 159.84C31.0686 169.377 29.4986 179.247 34.5477 186.815C38.3839 192.565 45.4402 195.849 51.7544 198.468C86.002 212.689 114.243 220.684 140.64 223.68C145.717 224.258 151.06 224.659 155.517 222.78C163.088 219.589 166.223 210.687 167.94 204.291C174.537 179.494 178.996 150.474 182.913 124.869L183.579 120.468C188.213 90.2955 182.905 78.3551 161.711 71.3275C154.608 69.4204 147.5 66.8454 140.614 64.3499C121.934 57.6077 104.306 51.2347 84.3012 55.7146L84.3078 55.7356Z" fill="black"/>
    <path d="M105.62 50.7244C98.7439 48.5143 89.9851 46.1181 83.2855 48.2022C75.4332 50.6528 72.1049 58.9118 70.2205 66.377C68.2484 74.1471 66.835 82.2588 68.463 90.2458C70.9557 102.585 80.6146 113.292 92.2534 120.173C103.892 127.054 117.814 128.847 130.806 132.909C177.534 147.512 192.489 88.4629 190.02 81.3893C187.178 73.2116 176.992 69.4113 168.104 66.7559C159.328 64.123 115.814 54.003 105.62 50.7244Z" fill="#ACD4F7"/>
    <path d="M105.262 127.08C100.553 125.554 95.9465 123.695 91.669 121.167C78.5813 113.431 69.7151 102.241 67.3328 90.4666C65.6144 81.9775 67.2642 73.3752 69.1114 66.0834C70.848 59.2422 74.1574 49.8352 82.9458 47.0985C89.7292 44.9877 98.3933 47.1948 105.976 49.6303C111.668 51.4553 128.097 55.5092 142.585 59.084C153.891 61.8703 164.56 64.5017 168.432 65.6476C178.469 68.6528 188.167 72.5854 191.097 81.0008C192.715 85.6559 187.998 108.781 173.475 123.785C161.972 135.658 147.093 139.201 130.45 134.003C126.502 132.766 122.385 131.721 118.407 130.713C114.04 129.609 109.597 128.483 105.248 127.073L105.262 127.08ZM105.264 51.8184C98.0275 49.4921 89.7936 47.3675 83.6318 49.2921C75.9471 51.6894 72.9403 60.3424 71.3362 66.6569C69.5481 73.6991 67.9446 81.9751 69.5788 90.0178C71.8378 101.151 80.3083 111.785 92.8302 119.193C100.764 123.894 110.024 126.235 118.973 128.502C122.979 129.524 127.131 130.57 131.141 131.822C147.133 136.823 160.825 133.577 171.827 122.197C185.871 107.68 190.086 85.1186 188.916 81.7635C186.32 74.3265 177.21 70.6803 167.762 67.8572C163.938 66.719 153.304 64.088 142.026 61.316C127.489 57.7335 111.025 53.6792 105.264 51.8184Z" fill="black"/>
    <path d="M123.637 117.256C119.985 116.225 116.355 115.187 112.703 114.155C111.179 113.717 109.523 113.297 108.062 113.785C106.161 114.412 105.279 116.355 104.663 118.12C103.554 121.346 102.729 124.666 102.195 128.032C101.936 129.649 101.793 131.449 102.852 132.82C103.781 134.036 105.241 135.142 106.743 135.622C110.441 136.8 114.272 137.416 117.97 138.595C120.512 139.402 123.534 140.16 125.592 138.721C126.857 137.835 127.392 136.36 127.864 134.941C129.126 131.216 131.719 125.764 130.981 121.337C130.531 118.653 126.486 117.908 123.644 117.243L123.637 117.256Z" fill="white"/>
    <path d="M106.36 136.701C104.712 136.164 103.058 134.993 101.931 133.517C100.633 131.829 100.753 129.702 101.05 127.842C101.599 124.414 102.432 121.01 103.57 117.729C104.236 115.797 105.305 113.461 107.695 112.667C109.554 112.053 111.556 112.616 113.004 113.033L124.534 116.267C127.501 116.962 131.55 117.902 132.097 121.144C132.745 125.034 131.083 129.498 129.74 133.075C129.437 133.864 129.169 134.618 128.937 135.304C128.48 136.661 127.849 138.523 126.233 139.648C123.838 141.333 120.668 140.656 117.601 139.682C115.8 139.1 113.901 138.642 112.07 138.221C110.198 137.777 108.264 137.319 106.373 136.708L106.346 136.694L106.36 136.701ZM126.76 119.24C125.86 118.95 124.889 118.728 124.029 118.528L123.371 118.38C123.371 118.38 123.343 118.365 123.329 118.358L112.396 115.257C110.872 114.818 109.534 114.494 108.43 114.868C107.011 115.342 106.279 116.96 105.764 118.497C104.677 121.646 103.859 124.918 103.34 128.222C103.119 129.666 103.008 131.132 103.766 132.137C104.599 133.234 105.859 134.149 107.078 134.534L107.092 134.541C108.9 135.109 110.799 135.567 112.623 136.002C114.494 136.446 116.429 136.904 118.319 137.514C120.812 138.314 123.35 138.892 124.937 137.787C125.851 137.139 126.298 136.004 126.783 134.592C127.023 133.893 127.318 133.118 127.615 132.308C128.865 128.98 130.411 124.842 129.851 121.558C129.664 120.463 128.311 119.763 126.767 119.261L126.76 119.24Z" fill="black"/>
    <path d="M114.774 132.353C114.206 132.164 113.867 131.568 114.014 130.979L116.428 121.441C116.59 120.824 117.207 120.443 117.824 120.605C118.427 120.759 118.822 121.384 118.66 122.001L116.246 131.538C116.085 132.155 115.467 132.536 114.85 132.375C114.823 132.36 114.809 132.353 114.781 132.339L114.774 132.353Z" fill="black"/>
    <path d="M146.602 162.586C122.516 155.428 101.853 149.201 77.7534 142.036C75.3981 141.342 72.9246 140.64 70.5176 141.163C66.359 142.093 63.8174 146.294 61.9342 150.17C58.5552 157.072 55.653 164.203 53.2147 171.486C52.2204 174.457 51.3077 177.574 51.7586 180.662C52.7453 187.249 59.3623 191.111 65.3559 193.774C85.9089 202.887 107.734 209.068 130.02 212.055C133.457 212.52 137.146 212.871 140.236 211.23C144.111 209.19 146.342 204.811 147.5 200.543C151.717 184.916 159.498 166.056 146.588 162.579L146.602 162.586Z" fill="white"/>
    <path d="M88.1096 203.71C80.2363 201.16 72.4869 198.2 64.8963 194.832C58.8126 192.139 51.7041 188.111 50.6156 180.841C50.1123 177.516 51.0832 174.218 52.1136 171.144C54.5524 163.826 57.4976 156.612 60.8909 149.682C62.9313 145.502 65.643 141.074 70.2689 140.053C73.0179 139.445 75.8305 140.27 78.0749 140.941C90.1283 144.517 101.315 147.872 112.509 151.213C123.683 154.561 134.877 157.902 146.909 161.485C149.84 162.284 151.968 163.857 153.278 166.199C156.848 172.564 153.628 183.558 150.524 194.192C149.874 196.395 149.217 198.682 148.616 200.857C147.574 204.731 145.361 209.855 140.785 212.267C137.415 214.043 133.545 213.704 129.879 213.208C115.681 211.306 101.696 208.114 88.1025 203.724L88.1096 203.71ZM146.869 163.863C146.689 163.805 146.509 163.747 146.308 163.695C146.308 163.695 146.294 163.688 146.281 163.681C134.227 160.105 123.04 156.75 111.846 153.409C100.659 150.054 89.4648 146.713 77.4252 143.144C75.3194 142.509 72.9365 141.802 70.7734 142.293C67.1102 143.112 64.7678 146.995 62.9637 150.685C59.6204 157.518 56.7044 164.642 54.3018 171.856C53.3652 174.681 52.482 177.674 52.8949 180.497C53.8178 186.665 60.2853 190.275 65.8298 192.724C86.3204 201.821 107.972 207.93 130.189 210.917C133.494 211.366 136.961 211.672 139.729 210.215C143.575 208.195 145.495 203.673 146.413 200.242C147.007 198.046 147.685 195.753 148.328 193.529C151.314 183.359 154.396 172.836 151.287 167.305C150.357 165.65 148.912 164.517 146.855 163.856L146.869 163.863Z" fill="black"/>
    <path d="M90.9326 162.69C83.6132 160.32 76.3582 157.827 69.1532 155.236C68.9455 155.164 68.8512 154.94 68.9165 154.746C68.9818 154.552 69.1919 154.451 69.4067 154.51C94.2396 163.473 119.863 171.111 145.557 177.193C145.758 177.244 145.894 177.455 145.842 177.656C145.791 177.857 145.58 177.993 145.379 177.942C127.111 173.619 108.867 168.503 90.9326 162.69Z" fill="black"/>
    <path d="M79.6758 63.7052C79.4958 63.647 79.3939 63.4717 79.4172 63.2912C80.1436 58.5714 81.6602 54.0503 83.9302 49.8666C84.0303 49.6732 84.2675 49.6209 84.4471 49.7138C84.6404 49.8139 84.6928 50.0511 84.5999 50.2307C82.3656 54.3453 80.8781 58.7763 80.1598 63.4128C80.1222 63.621 79.9254 63.7643 79.7311 63.7338C79.7172 63.7266 79.6896 63.7123 79.6758 63.7052Z" fill="black"/>
    <path d="M88.6635 57.6742C88.4834 57.616 88.3611 57.4126 88.4054 57.2254C88.9837 54.6528 89.9082 52.1894 91.1438 49.8694C91.2439 49.6761 91.4673 49.6166 91.6607 49.7166C91.854 49.8167 91.9273 50.0472 91.8135 50.2335C90.6065 52.4982 89.7105 54.9064 89.1542 57.4027C89.1027 57.6037 88.9059 57.7471 88.6911 57.6884C88.6911 57.6884 88.6773 57.6813 88.6635 57.6742Z" fill="black"/>
    <path d="M180.488 84.6513C180.308 84.5932 180.199 84.3969 180.229 84.2026L181.867 76.5044C181.904 76.2962 182.115 76.16 182.316 76.2115C182.524 76.2492 182.66 76.4598 182.609 76.6608L180.972 84.359C180.934 84.5671 180.723 84.7033 180.522 84.6518C180.522 84.6518 180.495 84.6375 180.481 84.6304L180.488 84.6513Z" fill="black"/>
    </g>
    <defs>
    <clipPath id="clip0_11_10">
    <rect width="178.259" height="196.703" fill="white" transform="translate(90.4033) rotate(27.3609)"/>
    </clipPath>
    </defs>
</svg>